<?xml version="1.0" encoding="utf-8" ?><svg xmlns="http://www.w3.org/2000/svg" xmlns:xlink="http://www.w3.org/1999/xlink" width="512" height="512" viewBox="0 0 512 512"><path fill="#91DEE5" d="M256.254 0.951262C257.577 1.81587 264.606 9.30783 266.395 11.0182C282.681 26.8621 298.861 42.8153 314.933 58.8766L440.22 184.141L478.558 222.443L497.009 240.976C502.027 246.015 506.441 250.605 511.691 255.41C511.452 257.029 495.123 272.566 492.821 274.869L452.566 315.245L319.216 448.905L274.42 493.748C268.471 499.73 262.635 505.379 256.752 511.489C256.67 511.482 256.587 511.487 256.507 511.469C255.05 511.136 218.332 473.768 214.127 469.581L64.8048 319.951L17.5425 272.612C12.8461 267.815 5.52713 261.267 1.32572 256.261C1.45327 254.983 9.38348 247.701 10.8868 246.188L33.8482 223.141C51.5255 205.241 69.3055 187.443 87.1874 169.747L256.254 0.951262ZM71.8088 256.523C74.395 258.196 77.3088 261.414 79.5417 263.657C83.4792 267.597 87.3914 271.564 91.2779 275.555L121.535 305.705L212.494 396.837C226.931 411.3 242.568 426.139 256.608 440.781C264.605 431.575 275.379 421.709 284.042 412.948L343.881 352.983C355.937 340.995 367.696 328.567 379.832 316.65C380.777 315.722 382.26 314.033 383.203 313.298C385.182 311.475 386.999 309.422 388.924 307.522C404.777 291.871 420.222 275.815 436.205 260.295C437.726 258.818 438.922 257.453 440.788 256.351C437.22 253.329 432.815 248.796 429.493 245.424L416.112 231.922C405.577 221.372 393.462 209.983 383.532 199.052L288.4 294.197C277.665 304.921 266.928 315.991 256.101 326.591C252.307 323.555 245.958 316.865 242.283 313.185L217.66 288.331C193.887 263.98 169.921 239.819 145.765 215.849C143.824 213.901 129.795 199.372 129.046 199.126C125.216 203.54 120.974 207.618 116.857 211.782L93.3674 235.257L80.4528 248.258C78.565 250.177 73.9257 255.034 71.8088 256.523ZM163.676 164.729C169.256 170.772 176.293 177.463 182.182 183.307L216.172 216.783C229.774 230.075 243.171 244.368 256.855 257.46C257.323 257.336 271.351 242.769 273.268 240.838L297.587 216.401C311.207 202.541 324.919 188.794 338.591 174.989C341.905 171.642 346.187 168.176 348.923 164.459C347.59 163.496 346.651 162.403 345.471 161.282C339.162 155.293 333.308 148.848 327.196 142.67L273.454 88.7982C269.481 84.807 265.627 80.6222 261.654 76.6307C260.485 75.4557 257.675 72.3697 256.493 71.6284C254.609 74.1049 246.705 81.6318 244.027 84.3071L217.621 110.775L182.475 146.226C177.694 151.046 168.61 160.714 163.676 164.729Z"/></svg>