<svg version="1.1" id="Layer_1" xmlns="http://www.w3.org/2000/svg" xmlns:xlink="http://www.w3.org/1999/xlink" x="0px" y="0px"
	 width="100%" viewBox="0 0 224 224" enable-background="new 0 0 224 224" xml:space="preserve">
<path fill="#000000" opacity="1.000000" stroke="none" 
	d="
M225.000000,69.531342 
	C222.423096,67.503288 223.109268,63.839287 222.136887,60.830826 
	C217.912338,47.760628 210.025085,38.299503 197.052856,34.142616 
	C191.921188,32.498196 186.135803,32.085037 180.610397,31.431669 
	C177.489700,31.062653 174.232712,30.967802 171.137207,31.425850 
	C161.149704,32.903717 152.948868,29.762262 146.617142,22.119230 
	C140.471558,14.700881 131.799347,10.755190 124.293755,5.219872 
	C121.618164,3.246652 118.122475,4.673674 115.019814,4.340512 
	C104.298363,3.189253 96.160309,8.282752 88.794464,15.202806 
	C82.798134,20.836239 76.483521,26.046957 69.458557,30.375422 
	C68.394836,31.030836 67.356659,31.292255 66.186081,31.333469 
	C56.305405,31.681349 46.494759,31.311655 36.560223,33.071552 
	C25.321886,35.062416 17.356548,40.264988 11.191912,49.579456 
	C7.669258,54.902016 6.011447,60.850166 3.471667,66.500343 
	C2.597629,68.444786 2.558857,70.295410 2.325008,72.254250 
	C0.676880,86.059853 4.237621,98.839714 9.503584,111.413681 
	C13.411327,120.744530 11.118534,128.850845 3.512298,135.123291 
	C2.873157,135.650360 2.259730,136.208603 1.317179,136.876190 
	C1.000000,91.712929 1.000000,46.425854 1.000000,1.069389 
	C75.544159,1.069389 150.088394,1.069389 225.000000,1.069389 
	C225.000000,23.686239 225.000000,46.374462 225.000000,69.531342 
z"/>
<path fill="#000000" opacity="1.000000" stroke="none" 
	d="
M1.000000,145.468658 
	C7.370508,145.354355 12.571526,149.211151 18.514744,150.864532 
	C20.954252,151.543213 21.584702,154.420441 21.821157,155.975204 
	C22.554296,160.795807 24.993170,164.735657 26.601347,169.038177 
	C28.450529,173.985504 30.556614,178.696991 33.246471,183.095856 
	C42.610378,198.409103 54.811989,209.991684 72.118805,216.840958 
	C91.574638,224.540756 111.462440,224.060638 131.486389,223.367722 
	C136.161804,223.205948 141.107239,220.795303 145.831284,219.300735 
	C151.779526,217.418900 157.408279,214.931702 163.192825,212.751312 
	C176.529617,207.724228 185.008972,197.358017 192.525177,185.994812 
	C197.643524,178.256714 201.361557,169.804306 204.535629,161.106934 
	C204.761734,160.487335 205.206955,159.938080 205.376862,159.309265 
	C206.081039,156.703064 204.564194,152.605453 207.823212,151.776474 
	C213.530045,150.324890 217.735718,144.955261 224.590591,145.895401 
	C225.000000,172.303223 225.000000,198.606461 225.000000,224.954834 
	C150.448837,224.954834 75.897629,224.954834 1.000000,224.954834 
	C1.000000,198.646790 1.000000,172.292053 1.000000,145.468658 
z"/>
<path fill="#000000" opacity="1.000000" stroke="none" 
	d="
M225.000000,135.531342 
	C219.568100,130.264191 215.370987,124.213493 216.469330,115.524155 
	C216.855240,112.471031 217.665482,109.389366 219.068939,107.285576 
	C222.381210,102.320473 222.521835,96.630936 224.637268,91.173706 
	C225.000000,105.687561 225.000000,120.375122 225.000000,135.531342 
z"/>
<path fill="#000000" opacity="1.000000" stroke="none" 
	d="
M148.972534,95.586578 
	C149.850555,100.699654 145.841690,103.227127 143.997192,106.767059 
	C141.151352,112.228729 136.623032,116.984909 137.331879,123.865158 
	C137.911636,129.492554 139.617493,134.253891 145.055222,137.155609 
	C150.288330,139.948151 150.641876,142.236588 146.350952,146.088867 
	C141.983215,150.010132 139.656372,155.313568 136.116898,160.653549 
	C132.513885,153.560333 127.027748,149.130157 121.050735,145.366119 
	C114.122505,141.003052 108.234550,141.677597 102.863258,147.732712 
	C99.773895,151.215378 95.779289,153.692963 93.049309,157.555801 
	C91.295212,160.037796 89.488487,158.755112 88.750122,156.449799 
	C87.159966,151.485092 83.833511,147.851212 80.044434,144.574036 
	C77.763290,142.601074 77.492836,141.247589 80.112625,139.123260 
	C83.729446,136.190445 87.265594,133.517975 89.255318,128.520920 
	C92.121140,121.323616 89.224678,116.090179 85.905624,110.752632 
	C83.409698,106.738777 80.013977,103.324379 79.592834,98.243233 
	C79.344475,95.246613 80.292946,93.145287 82.934532,91.643173 
	C86.821907,89.432648 90.465454,86.736977 94.491356,84.838562 
	C101.988152,81.303444 103.801323,73.742363 107.456215,67.484093 
	C108.946831,64.931702 110.965691,63.364864 113.874336,63.769390 
	C116.611244,64.150040 119.313438,64.973099 120.454094,68.059303 
	C121.251915,70.217949 122.208717,72.317268 123.043259,74.463020 
	C125.944435,81.922462 132.903107,84.792038 139.108307,88.351494 
	C142.599716,90.354256 145.968201,92.381180 148.972534,95.586578 
z"/>
</svg>