<svg viewBox="114.24 153.44 79.52 90.72" xmlns="http://www.w3.org/2000/svg" style="max-height: 500px" width="79.52" height="90.72"><defs><style>.cls-1{fill:#000;}</style></defs><title>jung_splash_placeholder</title><g id="Top"><path d="M127,217l25.5,24,6-7.5s6-37.5-27-76.5c7.5,21,12,42,12,51-6-13.5-21-25.5-27-27C127,193,127,217,127,217Z" class="cls-1"/><path d="M155.5,188.5s7.5-21,21-31.5C172,169,165,187.5,162,210A90.81,90.81,0,0,0,155.5,188.5Z" class="cls-1"/><path d="M163,230l13-14s4-23.5,14.5-34C178.5,188,163,206,163,230Z" class="cls-1"/></g></svg>