<svg width="108" height="90" xmlns="http://www.w3.org/2000/svg">

 <title>sup_splash_placeholder</title>
 <g>
  <title>Layer 1</title>
  <g id="Top">
   <path id="svg_1" fill="#fff" d="m62.28,27.11l6.63,19.89l18.21,-3.31l-11.59,-13.25s14.91,-1.65 31.47,-13.25l-36.44,0l-8.28,9.92z" class="cls-1"/>
   <path id="svg_2" fill="#fff" d="m45.72,27.11l-6.63,19.89l-18.22,-3.31l11.6,-13.25s-14.91,-1.65 -31.47,-13.25l36.44,0l8.28,9.92z" class="cls-1"/>
   <polygon id="svg_3" fill="#fff" points="57.30999755859375,30.419998168945312 54,32.08000183105469 50.69000244140625,30.419998168945312 39.089996337890625,78.44999694824219 54,88.38999938964844 68.91000366210938,78.44999694824219 57.30999755859375,30.419998168945312 " class="cls-1"/>
   <polygon id="svg_4" fill="#fff" points="37.44000244140625,5.5800018310546875 54,27.110000610351562 70.55999755859375,5.5800018310546875 65.58999633789062,0.6100006103515625 42.410003662109375,0.6100006103515625 37.44000244140625,5.5800018310546875 " class="cls-1"/>
  </g>
 </g>
</svg>