<?xml version="1.0" encoding="utf-8" ?><svg xmlns="http://www.w3.org/2000/svg" xmlns:xlink="http://www.w3.org/1999/xlink" width="512" height="512" viewBox="0 0 512 512"><path fill="#A8D25E" d="M290.453 11.6021C298.285 10.753 311.386 13.584 318.353 17.6144C328.858 23.6918 333.302 30.8574 336.456 42.2265C326.36 35.0153 315.608 31.5261 303.924 37.7572C292.383 43.912 284.976 61.2276 291.538 73.2234C295.819 81.0482 304.449 83.4765 312.444 85.6637L325.36 89.1021C361.161 98.9752 395.257 119.132 414.481 152.08C424.409 169.096 429.088 189.432 424.212 208.85C423.409 211.752 422.468 214.642 421.372 217.447C420.46 219.782 419.28 221.973 418.661 224.408C414.82 217.89 413.275 214.425 407.233 209.567C400.496 204.074 391.852 201.486 383.205 202.375C364.891 204.438 357.382 223.656 358.854 239.878C363.37 289.658 291.555 291.784 263.565 267.723C252.662 258.351 245.274 247.664 243.834 233.31C242.31 220.727 246.931 209.454 257.329 202.112C253.315 216.396 263.457 224.075 276.31 226.874C292.826 230.47 308.303 218.022 311.422 201.98C317.231 172.103 286.048 150.923 260.375 145.895C209.027 135.815 186.895 181.677 179.82 224.056C166.367 206.811 158.243 186.012 156.446 164.214C155.549 154.281 156.156 141.776 157.724 131.9C160.928 111.727 169.741 91.3282 182.906 75.6072C203.471 51.4911 229.359 32.4838 258.527 20.0849C270.504 14.9731 277.349 12.7493 290.453 11.6021Z"/><path fill="#A8D25E" d="M63.3494 292.101C67.4182 292.296 71.9908 291.979 75.8946 292.275C122.819 295.829 162.631 327.817 188.506 365.597C211.712 399.478 228.63 440.135 234.596 481.066C234.806 482.506 235.955 488.152 235.699 488.942L235.357 489.002C223.665 478.118 212.403 466.538 201.004 455.326C189.028 443.547 176.325 432.189 164.339 420.529C153.938 411.659 144.125 402.106 133.243 393.797C130.369 391.602 127.511 389.43 124.872 386.952C126.068 389.774 129.529 394.143 131.318 396.927C139.814 410.155 149.529 423.016 158.288 436C151.428 436 144.2 436.264 137.398 436.059C113.375 435.361 90.3405 430.125 69.3314 418.296C38.4799 400.926 20.1418 370.475 9.02945 337.763C6.94081 331.614 5.9433 325.547 4.28055 319.315C6.70884 316.281 9.61772 313.966 12.6679 311.603C27.4692 300.14 44.724 293.746 63.3494 292.101Z"/><path fill="#A8D25E" d="M147.092 91.9518C147.735 91.9191 147.433 91.848 147.997 92.169C148.144 92.6463 148.079 93.1416 147.883 93.5938C141.919 107.355 138.582 121.483 137.233 136.496C134.191 170.337 148.514 202.086 170.982 226.771C181.637 238.477 193.695 248.895 205.097 259.844C214.421 268.762 223.33 278.104 231.796 287.84C277.931 341.104 295.758 415.925 258.786 478.891C257.322 481.383 255.309 486.139 253.207 487.95C252.546 486.078 252.639 469.271 252.466 465.702C251.701 460.731 251.555 453.948 250.99 448.746C250.111 440.651 248.949 432.486 247.34 424.508C235.059 363.623 199.084 318.242 151.61 279.963C144.125 273.893 136.528 267.965 128.821 262.181C117.777 253.844 109.615 248.884 100.771 237.726C88.8328 222.662 85.7827 204.32 88.1055 185.49C92.164 152.588 113.207 122.124 137.063 100.086C139.799 97.5584 144.089 94.3509 147.092 91.9518Z"/><path fill="#A8D25E" d="M424.687 288.859C428.359 288.395 440.616 289.126 444.623 289.477C463.343 291.175 482.146 296.436 498.187 306.413C499.645 307.32 505.549 310.682 505.413 312.191C504.765 312.956 499.37 316.751 497.938 317.919C474.915 336.689 469.138 366.224 447.906 386.323C423.205 409.705 394.814 392.971 366.233 400.63C356.784 403.151 352.124 407.295 344.113 411.754C350.878 398.655 355.213 390.058 364.461 378.169C382.521 354.951 403.768 338.975 432.144 330.339C439.292 328.163 447.197 326.053 454.581 325.084C444.953 323.313 426.681 325.779 417.019 327.676C408.392 329.488 400.055 332.477 392.242 336.558C363.341 351.514 348.324 376.417 332.595 403.43C322.713 420.647 313.185 438.064 304.018 455.672C302.351 458.838 292.188 479.366 291.04 480.419L290.781 480.239C290.707 474.352 296.021 456.248 297.742 450.305C309.394 410.073 330.177 349.598 357.781 318.446C363.386 312.121 369.938 306.138 377.086 301.585C386.038 295.884 398.297 291.818 408.684 290.237C413.99 289.429 419.336 289.182 424.687 288.859Z"/></svg>